<svg id="Слой_1" xmlns="http://www.w3.org/2000/svg" viewBox="0 0 50.6 65.5"><style>.st0{fill:#fff}.st1{fill:#248ef1}</style><path class="st0" d="M10.5 44.6h-2V9.2c0-3.5 2-5.4 5.7-5.4S20 5.7 20 9.2v23.9h-2V9.2c0-2.3-1.2-3.4-3.7-3.4s-3.7 1-3.7 3.4v35.4zm26.7-7.7h-2v-8.6c0-4.1-1.2-5.1-3.2-5.3-2.2-.2-3.3.6-3.4.6L27.4 22c.2-.1 1.8-1.3 4.8-1 4.4.4 5 4.1 5 7.3v8.6z"/><path class="st0" d="M36.8 65.3l-1.4-1.4c.1-.1 6.7-7.2 6.7-19.3 0-5.1-.1-7.4-.4-11.7-.1-2.3-.7-3.8-1.6-4.5-.8-.7-2-.8-3.8-.5l-.3-2c2.3-.4 4-.1 5.3 1 1.4 1.1 2.2 3 2.4 6 .3 4.3.4 6.6.4 11.8 0 12.9-7 20.3-7.3 20.6zm-23.1.2c-.3-.2-6.9-5.5-10.2-10.2C1.1 51.8-.1 49 0 42.8c.1-4.6.5-8 .6-8.2.4-3.8 2.5-6.1 5.5-6.1 1.1 0 2.6.1 3.3.3l-.6 1.9c-.3-.1-1.6-.3-2.7-.3-1.9 0-3.2 1.6-3.5 4.3 0 .1-.5 3.5-.5 8-.1 5.7.9 8.1 3.1 11.4 3.1 4.5 9.7 9.7 9.8 9.8l-1.3 1.6zM29.4 34h-2v-8c0-5.3-2.1-5.9-3.7-5.9-2.8 0-4.3.7-4.3.7l-.9-1.8c.2-.1 1.9-.9 5.2-.9 2.6 0 5.7 1.4 5.7 7.9v8z"/><path class="st1" d="M30.2 3.4h18.1v2H30.2z"/><path class="st1" d="M32.3 8.8l-4.5-4.4L32.3 0l1.4 1.4-3 3 3 3zm13.9 0l-1.4-1.4 3-3-3-3L46.2 0l4.4 4.4z"/></svg>