<svg xmlns="http://www.w3.org/2000/svg" xmlns:xlink="http://www.w3.org/1999/xlink" height="223" viewBox="0 0 135 223" width="135"><svg height="77.9" viewBox="0 0 127 78" width="126.4" x="4" y="4"><style>.st0{enable-background:new}.st1{fill:#000}</style><g id="Boroda" class="st0"><path class="st1" d="M69.8 56.8c-.7 0-1.4 0-2-.1-.7 0-1.4-.1-2.1-.3V44.3c.6-.1 1.2-.2 1.9-.2.7-.1 1.3-.1 1.9-.1.8 0 1.5.1 2.2.2.7.1 1.2.3 1.7.6s.8.6 1.1 1.1c.3.5.4 1 .4 1.7 0 1-.5 1.8-1.4 2.4.8.3 1.3.7 1.6 1.2s.4 1.1.4 1.7c0 1.3-.5 2.3-1.4 3s-2.4.9-4.3.9zM68.4 49h1.4c.9 0 1.5-.1 1.8-.3.4-.2.6-.6.6-1.1 0-.5-.2-.9-.6-1.1-.4-.2-.9-.3-1.7-.3h-1.5V49zm0 2.2v3.2c.2 0 .4 0 .7.1h.8c.8 0 1.5-.1 2-.4.5-.2.8-.7.8-1.3 0-.6-.2-1-.6-1.2-.4-.2-1-.4-1.8-.4h-1.9zm17.9.6c0 .7-.1 1.4-.3 2-.2.6-.5 1.1-.9 1.6-.4.4-.9.8-1.5 1s-1.2.4-1.9.4-1.3-.1-1.9-.4c-.6-.2-1-.6-1.5-1-.4-.4-.7-1-.9-1.6-.2-.6-.3-1.3-.3-2s.1-1.4.3-2c.2-.6.6-1.1 1-1.6.4-.4.9-.8 1.5-1 .6-.2 1.2-.4 1.8-.4.7 0 1.3.1 1.9.4s1 .6 1.5 1c.4.4.7 1 .9 1.6.2.6.3 1.3.3 2zm-2.7 0c0-.8-.2-1.5-.5-2s-.8-.7-1.4-.7c-.6 0-1.1.2-1.4.7-.3.5-.5 1.1-.5 2s.2 1.5.5 2 .8.7 1.4.7c.6 0 1.1-.2 1.4-.7s.5-1.1.5-2zM94 49.5c-.2-.1-.5-.1-.8-.2-.3-.1-.7-.1-1-.1h-.6c-.2 0-.4.1-.5.1v7.2h-2.7v-9c.5-.2 1-.3 1.7-.5.6-.1 1.4-.2 2.2-.2h.5c.2 0 .4 0 .6.1.2 0 .4.1.6.1.2 0 .4.1.5.2l-.5 2.3zm10.5 2.3c0 .7-.1 1.4-.3 2-.2.6-.5 1.1-.9 1.6-.4.4-.9.8-1.5 1s-1.2.4-1.9.4-1.3-.1-1.9-.4c-.6-.2-1-.6-1.5-1-.4-.4-.7-1-.9-1.6-.2-.6-.3-1.3-.3-2s.1-1.4.3-2c.2-.6.6-1.1 1-1.6.4-.4.9-.8 1.5-1 .6-.2 1.2-.4 1.8-.4.7 0 1.3.1 1.9.4s1 .6 1.5 1c.4.4.7 1 .9 1.6.2.6.3 1.3.3 2zm-2.7 0c0-.8-.2-1.5-.5-2s-.8-.7-1.4-.7c-.6 0-1.1.2-1.4.7-.3.5-.5 1.1-.5 2s.2 1.5.5 2 .8.7 1.4.7c.6 0 1.1-.2 1.4-.7s.5-1.1.5-2zm13 4.5c-.2.1-.5.1-.8.2-.3.1-.6.1-1 .2-.3 0-.7.1-1 .1h-1c-.8 0-1.5-.1-2.1-.3-.6-.2-1.1-.6-1.5-1s-.7-.9-1-1.5c-.2-.6-.3-1.3-.3-2 0-.8.1-1.5.3-2.1.2-.6.5-1.1.8-1.6.4-.4.8-.8 1.3-1s1.1-.3 1.8-.3c.4 0 .7 0 1 .1l.9.3v-4.3l2.7-.4v13.6zm-6-4.5c0 .8.2 1.5.6 2 .4.5.9.8 1.6.8h.7c.2 0 .4 0 .5-.1v-4.9c-.2-.1-.4-.2-.7-.3s-.5-.1-.8-.1c-1.3 0-1.9.9-1.9 2.6zm11.9-4.9c.8 0 1.4.1 2 .3s.9.4 1.3.8c.3.3.5.7.7 1.2.1.5.2 1 .2 1.6v5.6c-.4.1-.9.2-1.6.3-.7.1-1.5.2-2.5.2-.6 0-1.2-.1-1.7-.2s-.9-.3-1.3-.5-.6-.6-.8-1c-.2-.4-.3-.9-.3-1.5s.1-1 .3-1.4c.2-.4.5-.7.9-.9.4-.2.8-.4 1.3-.5s1-.2 1.5-.2h.9c.3 0 .5.1.7.1v-.3c0-.5-.1-.8-.4-1.1-.3-.3-.8-.4-1.4-.4-.5 0-.9 0-1.3.1s-.8.2-1.1.3l-.3-2.2c.2 0 .3-.1.6-.2.2-.1.5-.1.8-.1s.6-.1.9-.1c0 .1.3.1.6.1zm.2 7.8h.7c.2 0 .4 0 .6-.1v-2c-.1 0-.3 0-.5-.1h-1.3c-.2 0-.4.1-.6.2-.2.1-.3.2-.4.3-.1.1-.1.3-.1.5 0 .4.1.7.4.9.3.2.7.3 1.2.3z"/></g><g id="Digital" class="st0"><path class="st1" d="M71.2 64.4c0 .6-.1 1.1-.3 1.6-.2.4-.4.8-.8 1.1-.3.3-.7.5-1.2.6s-1 .2-1.5.2h-.9c-.3 0-.6-.1-.9-.1V61c.3-.1.6-.1.9-.1h.9c.6 0 1.1.1 1.5.2.5.1.9.4 1.2.7s.6.7.8 1.1c.2.4.3.9.3 1.5zm-3.7 2.7c.9 0 1.6-.2 2-.7.4-.5.7-1.1.7-2 0-.8-.2-1.5-.7-2-.4-.5-1.1-.7-2-.7h-.9V67h.3c.1.1.3.1.6.1zm5.5-5.4c-.2 0-.3-.1-.4-.2s-.2-.3-.2-.4c0-.2.1-.3.2-.4.1-.1.3-.2.4-.2.2 0 .3.1.4.2.1.1.2.3.2.4 0 .2-.1.3-.2.4-.1.1-.2.2-.4.2zm.5 6.1h-.9v-5.2h.9v5.2zm4.8-.5c-.1.1-.2.1-.5.2-.2.1-.5.1-.8.1-.3 0-.6-.1-.9-.2s-.5-.3-.7-.5c-.2-.2-.4-.5-.5-.8-.1-.3-.2-.7-.2-1.1 0-.4.1-.7.2-1 .1-.3.3-.6.5-.8s.5-.4.8-.5.7-.2 1-.2c.4 0 .8 0 1.1.1.3.1.6.1.8.2v4.6c0 .8-.2 1.4-.6 1.7-.4.4-1 .5-1.9.5-.3 0-.6 0-.9-.1-.3-.1-.5-.1-.7-.2l.2-.8c.2.1.4.1.7.2s.5.1.8.1c.5 0 .9-.1 1.2-.3.2-.2.4-.6.4-1.1v-.1zm0-3.8c-.1 0-.2-.1-.4-.1h-.6c-.5 0-.9.2-1.1.5-.3.3-.4.8-.4 1.3 0 .3 0 .6.1.8.1.2.2.4.3.5.1.1.3.2.4.3.2.1.3.1.5.1s.5 0 .7-.1.4-.2.5-.2v-3.1zm3-1.8c-.2 0-.3-.1-.4-.2-.1-.1-.2-.3-.2-.4 0-.2.1-.3.2-.4.1-.1.3-.2.4-.2s.3.1.4.2c.1.1.2.3.2.4 0 .2-.1.3-.2.4s-.3.2-.4.2zm.4 6.1h-.9v-5.2h.9v5.2zm2.5-5.2h2v.8h-2v2.4c0 .3 0 .5.1.6s.1.3.2.4c.1.1.2.2.3.2.1 0 .3.1.4.1.3 0 .5 0 .7-.1.2-.1.3-.1.4-.1l.2.8c-.1 0-.3.1-.5.2-.4 0-.7.1-1 .1-.3 0-.6 0-.9-.1-.2-.1-.4-.2-.5-.4-.1-.2-.2-.4-.3-.7s-.1-.6-.1-.9v-4.6l.9-.2v1.5zm4.8-.1c.4 0 .7 0 .9.1s.5.2.6.4.3.4.3.6c.1.2.1.5.1.8v3.3c-.1 0-.2 0-.3.1-.1 0-.3 0-.5.1-.2 0-.4 0-.6.1s-.4 0-.6 0c-.3 0-.6 0-.8-.1-.2-.1-.5-.2-.6-.3-.2-.1-.3-.3-.4-.5s-.1-.5-.1-.8c0-.3.1-.5.2-.7.1-.2.3-.4.5-.5s.4-.2.7-.3c.3-.1.5-.1.8-.1h.9v-.3c0-.2 0-.3-.1-.5 0-.2-.1-.3-.2-.4-.1-.1-.2-.2-.4-.3s-.3-.1-.6-.1-.6 0-.8.1c-.2 0-.4.1-.5.1l-.1-.8c.1-.1.3-.1.6-.2.3.2.6.2 1 .2zm0 4.7h.6c.2 0 .3 0 .4-.1v-1.6c-.1 0-.2-.1-.3-.1h-.9c-.2 0-.3.1-.4.1l-.3.3c-.1.1-.1.3-.1.4 0 .3.1.6.3.7s.4.3.7.3zm5 .7c-.6 0-1-.1-1.2-.4-.2-.2-.4-.6-.4-1.1v-6.2l.9-.2v6.7c0 .1.1.2.1.2.1.1.1.1.2.1s.2.1.4.1v.8z"/></g><path class="st1" d="M32.7 68.3l18-10V44.5h-.2L29.4 32.9v4.9L40.8 44v14.7l-8.1 4.7-8.5-4.8V19L8.1 10.1v5l6.2 3.4V53l-6.2-3.5L0 54.3v4.6l8.1-4.4zM24.2 9.1L8.1.2v4.9l16.1 9z"/><path class="st1" d="M32.8 72.9L8.1 59.1l-8 4.7v4.6l8-4.4 24.7 13.9 17.9-10.1v-5.3z"/></svg><svg height="65.5" viewBox="0 0 51 66" width="50.6" x="4" y="86"><style>.st0{fill:#fff}.st1{fill:#248ef1}</style><path class="st0" d="M10.5 44.6h-2V9.2c0-3.5 2-5.4 5.7-5.4S20 5.7 20 9.2v23.9h-2V9.2c0-2.3-1.2-3.4-3.7-3.4s-3.7 1-3.7 3.4v35.4zm26.7-7.7h-2v-8.6c0-4.1-1.2-5.1-3.2-5.3-2.2-.2-3.3.6-3.4.6L27.4 22c.2-.1 1.8-1.3 4.8-1 4.4.4 5 4.1 5 7.3v8.6z"/><path class="st0" d="M36.8 65.3l-1.4-1.4c.1-.1 6.7-7.2 6.7-19.3 0-5.1-.1-7.4-.4-11.7-.1-2.3-.7-3.8-1.6-4.5-.8-.7-2-.8-3.8-.5l-.3-2c2.3-.4 4-.1 5.3 1 1.4 1.1 2.2 3 2.4 6 .3 4.3.4 6.6.4 11.8 0 12.9-7 20.3-7.3 20.6zm-23.1.2c-.3-.2-6.9-5.5-10.2-10.2C1.1 51.8-.1 49 0 42.8c.1-4.6.5-8 .6-8.2.4-3.8 2.5-6.1 5.5-6.1 1.1 0 2.6.1 3.3.3l-.6 1.9c-.3-.1-1.6-.3-2.7-.3-1.9 0-3.2 1.6-3.5 4.3 0 .1-.5 3.5-.5 8-.1 5.7.9 8.1 3.1 11.4 3.1 4.5 9.7 9.7 9.8 9.8l-1.3 1.6zM29.4 34h-2v-8c0-5.3-2.1-5.9-3.7-5.9-2.8 0-4.3.7-4.3.7l-.9-1.8c.2-.1 1.9-.9 5.2-.9 2.6 0 5.7 1.4 5.7 7.9v8z"/><path class="st1" d="M30.2 3.4h18.1v2H30.2z"/><path class="st1" d="M32.3 8.8l-4.5-4.4L32.3 0l1.4 1.4-3 3 3 3zm13.9 0l-1.4-1.4 3-3-3-3L46.2 0l4.4 4.4z"/></svg><svg height="23" viewBox="0 0 34 23" width="34" x="4" y="156"><style>.st0{fill:#000}</style><path class="st0" d="M0 0v3h34V0H0zm0 13h34v-3H0v3zm10 10h24v-3H10v3z"/></svg><svg height="23" viewBox="0 0 34 23" width="34" x="4" y="183"><style>.st0{fill:#fff}</style><path class="st0" d="M0 0v3h34V0H0zm0 13h34v-3H0v3zm10 10h24v-3H10v3z"/></svg><svg height="9" viewBox="0 0 14 9" width="14" x="4" y="210"><path d="M14 4.3L9.8 0 9 .6 12.2 4H0v1h12.2L9 8.3l.8.7L14 4.6l-.2-.1z"/></svg></svg>